<?xml version="1.0" standalone="no"?>
<!DOCTYPE svg PUBLIC "-//W3C//DTD SVG 20010904//EN"
 "http://www.w3.org/TR/2001/REC-SVG-20010904/DTD/svg10.dtd">
<svg version="1.0" xmlns="http://www.w3.org/2000/svg"
 width="992.000000pt" height="992.000000pt" viewBox="0 0 992.000000 992.000000"
 preserveAspectRatio="xMidYMid meet">
<metadata>
Created by potrace 1.11, written by Peter Selinger 2001-2013
</metadata>
<g transform="translate(0.000000,992.000000) scale(0.100000,-0.100000)"
fill="#000000" stroke="none">
<path d="M6458 9894 c-2 -2 -19 -5 -38 -8 -58 -8 -92 -16 -160 -37 -65 -21
-210 -86 -220 -99 -3 -3 -12 -9 -20 -13 -18 -8 -50 -28 -66 -42 -39 -33 -55
-45 -59 -45 -21 0 -215 -225 -215 -250 0 -5 -4 -10 -9 -10 -18 0 -129 -249
-132 -295 0 -2 -5 -19 -10 -37 -19 -60 -23 -112 -24 -253 0 -137 11 -215 41
-297 8 -21 12 -38 9 -38 -10 0 92 -215 116 -244 5 -6 26 -34 46 -62 58 -78
105 -128 185 -192 73 -59 171 -122 187 -122 5 0 11 -3 13 -8 4 -9 121 -55 193
-76 94 -28 188 -39 315 -39 90 1 114 3 200 18 64 12 174 47 238 76 35 16 66
29 68 29 3 0 10 4 17 10 7 5 41 29 77 53 81 53 97 66 177 147 110 112 200 261
253 422 16 49 29 92 29 96 -1 4 0 9 1 12 25 65 28 312 6 410 -4 14 -8 36 -11
50 -3 14 -7 35 -9 47 -7 32 -76 205 -90 223 -6 8 -20 31 -30 50 -43 77 -217
280 -241 280 -4 0 -15 8 -24 18 -41 47 -235 148 -361 189 -81 25 -196 40 -317
41 -73 0 -133 -2 -135 -4z"/>
<path d="M3958 7804 c-3 -2 -28 -6 -56 -9 -51 -4 -151 -20 -207 -31 -16 -4
-39 -8 -50 -9 -11 -2 -20 -4 -20 -5 0 -1 -7 -3 -15 -5 -8 -1 -35 -8 -60 -15
-25 -7 -52 -13 -60 -15 -23 -5 -172 -55 -195 -65 -11 -5 -43 -18 -70 -29 -28
-10 -78 -32 -112 -49 -34 -16 -64 -27 -67 -24 -4 3 -6 0 -6 -6 0 -7 -4 -12 -9
-12 -14 0 -175 -94 -281 -165 -87 -58 -137 -95 -268 -202 -60 -49 -316 -305
-362 -361 -19 -24 -45 -54 -57 -68 -12 -13 -34 -41 -50 -61 -15 -21 -32 -43
-38 -49 -10 -12 -17 -21 -87 -118 -74 -101 -109 -193 -113 -293 -5 -119 37
-231 120 -321 22 -24 42 -48 43 -53 2 -5 10 -9 18 -9 8 0 14 -4 14 -8 0 -4 30
-26 68 -48 185 -110 402 -125 571 -40 97 48 169 116 249 234 13 19 29 40 35
47 7 7 25 30 42 51 77 100 250 273 314 314 13 8 31 22 40 31 24 24 134 98 171
115 8 4 27 16 43 26 15 11 27 16 27 12 0 -3 6 -2 13 4 12 10 150 70 177 78
161 42 199 50 295 60 146 16 341 5 476 -27 26 -6 53 -12 60 -13 8 -1 42 -11
76 -20 l62 -18 -36 -67 c-20 -36 -58 -109 -86 -161 -28 -52 -53 -97 -56 -100
-3 -3 -19 -32 -36 -65 -16 -33 -35 -66 -42 -73 -7 -7 -13 -19 -13 -26 0 -7 -9
-25 -21 -40 -11 -14 -17 -26 -14 -26 4 0 3 -6 -3 -12 -5 -7 -31 -53 -57 -103
-26 -49 -63 -119 -83 -155 -36 -68 -100 -190 -197 -375 -66 -126 -192 -371
-392 -765 -180 -353 -248 -463 -407 -660 -93 -115 -317 -334 -386 -379 -14 -9
-31 -21 -38 -28 -25 -24 -179 -122 -252 -160 -179 -94 -399 -165 -522 -167
-16 -1 -28 -4 -28 -8 0 -8 -301 -8 -315 0 -5 3 -25 7 -44 9 -49 5 -212 50
-265 73 -26 11 -46 18 -46 16 0 -3 -37 16 -82 40 -215 116 -279 137 -411 136
-92 -1 -214 -35 -279 -78 -21 -13 -41 -24 -45 -24 -13 -1 -127 -123 -154 -165
-63 -100 -95 -230 -86 -343 9 -103 16 -130 57 -217 45 -96 116 -174 215 -237
93 -59 302 -160 390 -188 22 -7 45 -15 50 -19 6 -3 15 -7 20 -8 6 -1 62 -18
125 -38 63 -20 131 -38 150 -41 19 -3 40 -10 46 -15 6 -5 13 -7 15 -4 3 2 22
0 44 -5 22 -5 63 -12 90 -16 28 -3 59 -8 70 -11 137 -31 521 -35 740 -8 63 8
257 44 293 54 18 6 33 10 35 10 19 -2 281 79 317 98 14 7 30 13 36 13 11 0 48
16 117 51 22 10 45 19 52 19 8 0 20 6 27 13 11 10 104 59 118 62 4 0 96 55
214 128 11 7 29 20 40 30 11 9 23 17 26 17 4 0 18 9 31 20 29 24 34 28 84 64
22 17 42 32 45 35 3 4 39 35 80 71 106 93 235 226 305 313 19 25 34 36 45 31
8 -3 22 -7 30 -9 76 -17 490 -210 720 -336 130 -71 335 -193 338 -201 2 -4 10
-8 18 -8 8 0 14 -4 14 -10 0 -5 5 -10 10 -10 6 0 58 -31 116 -70 57 -38 109
-70 114 -70 6 0 10 -4 10 -9 0 -5 19 -20 43 -34 23 -14 52 -33 64 -44 13 -10
55 -40 93 -68 39 -27 83 -60 98 -73 15 -12 50 -39 78 -60 44 -32 80 -70 146
-155 33 -42 22 -23 126 -202 68 -116 302 -584 302 -603 0 -7 5 -12 10 -12 6 0
10 -6 10 -14 0 -8 18 -54 41 -103 22 -48 50 -108 61 -133 11 -25 28 -63 39
-85 60 -130 92 -201 93 -210 1 -5 16 -39 33 -75 17 -36 49 -106 71 -156 51
-116 97 -187 158 -245 56 -52 126 -99 149 -99 8 0 15 -5 15 -10 0 -6 3 -9 8
-8 4 1 27 -4 52 -12 25 -7 84 -14 131 -16 76 -2 109 2 182 21 9 3 26 7 38 10
12 2 28 10 37 17 8 7 17 11 19 9 3 -2 34 15 69 38 58 37 108 82 155 139 23 27
78 141 86 177 9 39 10 201 2 240 -9 45 -54 152 -111 268 -44 89 -67 139 -73
157 -2 6 -48 103 -101 215 -21 44 -38 82 -38 85 -1 3 -16 36 -35 74 -74 153
-105 221 -103 228 1 5 -2 8 -8 8 -5 0 -10 5 -10 11 0 16 -180 380 -198 402 -8
9 -12 17 -7 17 4 0 3 6 -3 13 -5 6 -32 53 -58 102 -26 50 -58 107 -71 127 -12
21 -23 42 -23 48 0 5 -4 10 -10 10 -5 0 -10 5 -10 10 0 6 -12 29 -27 53 -15
23 -33 53 -41 66 -57 107 -246 331 -322 382 -19 13 -46 34 -60 46 -14 13 -28
23 -31 23 -3 0 -22 13 -40 30 -19 16 -37 30 -40 30 -3 0 -15 8 -27 18 -19 16
-42 33 -200 144 -37 26 -72 52 -77 56 -6 5 -24 17 -40 28 -17 10 -32 21 -35
24 -3 3 -12 10 -21 15 -9 6 -49 33 -90 60 -76 53 -81 56 -144 94 -22 14 -42
28 -45 31 -3 3 -39 27 -80 53 -41 25 -80 51 -87 57 -7 5 -14 10 -17 10 -2 0
-47 27 -99 60 -53 33 -101 60 -106 60 -6 0 -11 5 -11 10 0 6 -7 10 -15 10 -8
0 -15 5 -15 10 0 6 -5 10 -11 10 -5 0 -26 11 -45 24 -34 23 -34 24 -17 42 10
9 17 19 16 21 -3 4 9 37 16 43 3 3 15 23 26 45 11 22 29 56 42 76 12 20 19 40
16 43 -4 3 -1 6 5 6 6 0 14 10 18 22 4 12 40 82 80 155 41 73 74 138 74 143 0
6 5 10 10 10 6 0 10 9 10 19 0 11 4 22 9 26 6 3 16 18 24 33 7 15 27 52 44 82
36 66 104 191 129 240 11 19 21 37 24 40 3 3 21 35 40 72 19 37 38 68 43 68 4
0 7 6 7 13 0 6 47 95 105 196 58 102 105 188 105 192 0 4 6 14 13 21 7 7 23
34 37 61 14 26 28 47 32 47 5 0 8 8 8 18 0 10 7 27 15 37 9 11 38 59 66 108
28 48 55 84 60 81 6 -3 20 -7 32 -9 12 -2 67 -15 122 -29 55 -14 114 -28 130
-31 106 -16 150 -23 150 -25 0 -3 100 -11 162 -13 35 -1 63 -4 63 -7 0 -6 247
-2 325 4 108 9 171 16 200 22 17 3 39 7 50 8 11 2 47 9 80 16 80 17 78 16 95
23 8 3 35 10 60 17 25 6 50 12 55 13 59 16 167 54 193 68 17 10 32 16 32 13 0
-4 7 -1 15 6 8 7 15 10 15 7 0 -5 144 61 200 92 69 37 121 67 167 97 29 18 57
34 62 34 5 0 11 3 13 8 2 4 29 24 60 45 31 21 67 47 79 58 12 10 25 19 28 19
4 0 20 12 37 28 18 15 55 47 85 72 133 112 259 238 390 390 81 94 246 313 254
339 3 11 11 21 16 21 5 0 8 3 7 8 -1 4 9 40 22 81 19 61 22 87 17 150 -3 43
-15 98 -26 124 -11 26 -19 48 -18 50 5 5 -70 100 -107 135 -75 69 -179 130
-256 148 -19 4 -37 8 -40 9 -108 29 -249 20 -350 -22 -8 -3 -17 -7 -20 -7 -3
-1 -27 -14 -55 -30 -69 -41 -116 -86 -193 -186 -36 -47 -72 -92 -79 -100 -7
-8 -30 -35 -51 -59 -114 -136 -345 -341 -382 -341 -5 0 -10 -4 -10 -9 0 -8
-27 -25 -155 -96 -95 -53 -315 -128 -410 -139 -22 -2 -40 -5 -40 -6 0 -4 -138
-13 -215 -13 -126 -1 -213 9 -345 39 -38 9 -77 17 -85 18 -9 1 -20 4 -25 8 -6
3 -23 9 -40 13 -44 12 -45 12 -50 15 -3 1 -8 3 -12 5 -5 1 -17 5 -28 9 -11 4
-45 17 -75 29 -30 11 -92 38 -138 59 -45 21 -85 38 -90 39 -4 0 -11 4 -17 9
-5 4 -37 23 -70 40 -33 18 -67 39 -76 46 -8 8 -19 14 -24 14 -4 0 -22 10 -39
23 -45 33 -188 116 -281 163 -27 14 -57 29 -65 34 -51 32 -145 83 -146 79 -1
-2 -10 3 -20 12 -11 8 -71 39 -134 68 -63 29 -122 56 -131 61 -54 29 -385 144
-442 153 -12 2 -29 7 -37 10 -14 5 -137 32 -200 43 -14 2 -34 6 -45 9 -11 2
-47 7 -80 11 -33 3 -73 8 -90 11 -38 7 -481 13 -487 7z"/>
</g>
</svg>
